<svg width="197" height="37" viewBox="0 0 197 37" fill="white" xmlns="http://www.w3.org/2000/svg">
<path d="M46.3014 27.6741V7.96785H54.3809C55.751 7.96785 56.9052 8.18368 57.8436 8.61534C58.782 9.047 59.4952 9.64757 59.9831 10.4171C60.4711 11.1678 60.7151 12.0405 60.7151 13.0352C60.7151 14.0299 60.4992 14.865 60.0676 15.5407C59.6359 16.2163 59.0635 16.7418 58.3503 17.1172C57.6371 17.4738 56.8677 17.6802 56.0419 17.7365L56.4923 17.4268C57.3932 17.4644 58.1908 17.7084 58.8852 18.1588C59.5796 18.5904 60.1333 19.1722 60.5462 19.9042C60.9591 20.6361 61.1655 21.4338 61.1655 22.2971C61.1655 23.3481 60.9121 24.2771 60.4054 25.0841C59.8987 25.8911 59.1573 26.5292 58.1814 26.9984C57.2243 27.4489 56.0513 27.6741 54.6624 27.6741H46.3014ZM50.1019 24.5774H54.0713C55.0847 24.5774 55.873 24.3428 56.436 23.8736C57.0178 23.4044 57.3087 22.7287 57.3087 21.8467C57.3087 20.9646 57.0084 20.2795 56.4079 19.7916C55.8261 19.2849 55.0284 19.0315 54.015 19.0315H50.1019V24.5774ZM50.1019 16.1882H53.7616C54.7563 16.1882 55.5164 15.9629 56.0419 15.5125C56.5674 15.0621 56.8301 14.424 56.8301 13.5982C56.8301 12.7912 56.5674 12.1625 56.0419 11.712C55.5164 11.2428 54.7469 11.0082 53.7334 11.0082H50.1019V16.1882ZM70.7358 28.0119C69.3094 28.0119 68.0426 27.7116 66.9353 27.111C65.8468 26.5105 64.9928 25.6659 64.3735 24.5774C63.7541 23.4888 63.4445 22.2408 63.4445 20.8332C63.4445 19.3693 63.7448 18.0837 64.3453 16.9764C64.9647 15.8503 65.8186 14.9683 66.9071 14.3301C68.0144 13.692 69.2906 13.373 70.7358 13.373C72.1434 13.373 73.3726 13.6733 74.4236 14.2738C75.4746 14.8744 76.3004 15.7002 76.901 16.7512C77.5016 17.7834 77.8019 18.9564 77.8019 20.2702C77.8019 20.4578 77.7925 20.6737 77.7737 20.9177C77.7737 21.1429 77.7643 21.3775 77.7456 21.6214H66.147V19.2849H73.9451C73.8888 18.4215 73.5603 17.7271 72.9598 17.2016C72.378 16.6761 71.646 16.4134 70.7639 16.4134C70.107 16.4134 69.5065 16.5635 68.9622 16.8638C68.4179 17.1453 67.9863 17.5864 67.6672 18.1869C67.3482 18.7687 67.1887 19.5007 67.1887 20.3828V21.1992C67.1887 21.9499 67.3388 22.6068 67.6391 23.1698C67.9394 23.7328 68.3523 24.1645 68.8778 24.4648C69.422 24.7651 70.032 24.9152 70.7076 24.9152C71.402 24.9152 71.9838 24.7651 72.453 24.4648C72.9222 24.1457 73.2788 23.7422 73.5228 23.2542H77.3796C77.1168 24.1363 76.6758 24.9434 76.0564 25.6753C75.4371 26.3885 74.677 26.9609 73.7762 27.3926C72.8753 27.8054 71.8618 28.0119 70.7358 28.0119ZM79.6836 27.6741V24.6337L86.7497 16.8357H79.7681V13.7108H91.0569V16.7512L83.9345 24.5492H91.1977V27.6741H79.6836ZM94.451 21.1147V17.9336H106.331V21.1147H94.451ZM114.804 27.6741L107.878 7.96785H111.932L117.337 24.1833H117.366L122.799 7.96785H126.796L119.899 27.6741H114.804ZM133.881 28.0119C132.549 28.0119 131.338 27.7022 130.25 27.0829C129.161 26.4635 128.298 25.6002 127.66 24.4929C127.041 23.3856 126.731 22.1188 126.731 20.6924C126.731 19.2473 127.05 17.9805 127.688 16.892C128.326 15.7847 129.18 14.9213 130.25 14.302C131.338 13.6827 132.558 13.373 133.91 13.373C135.261 13.373 136.481 13.6827 137.569 14.302C138.658 14.9213 139.512 15.7847 140.131 16.892C140.769 17.9805 141.088 19.2473 141.088 20.6924C141.088 22.1376 140.769 23.4138 140.131 24.5211C139.493 25.6096 138.63 26.4635 137.541 27.0829C136.453 27.7022 135.233 28.0119 133.881 28.0119ZM133.881 24.7463C134.501 24.7463 135.054 24.5961 135.542 24.2959C136.049 23.9956 136.453 23.5451 136.753 22.9446C137.053 22.344 137.203 21.5933 137.203 20.6924C137.203 19.7916 137.053 19.0409 136.753 18.4403C136.453 17.8397 136.049 17.3893 135.542 17.089C135.054 16.7887 134.51 16.6386 133.91 16.6386C133.328 16.6386 132.784 16.7887 132.277 17.089C131.77 17.3893 131.357 17.8397 131.038 18.4403C130.738 19.0409 130.588 19.7916 130.588 20.6924C130.588 21.5933 130.738 22.344 131.038 22.9446C131.357 23.5451 131.761 23.9956 132.249 24.2959C132.755 24.5961 133.3 24.7463 133.881 24.7463ZM143.923 27.6741V13.7108H147.273L147.639 16.4415H147.667C148.024 15.7471 148.446 15.1747 148.934 14.7243C149.422 14.2738 149.985 13.936 150.623 13.7108C151.28 13.4856 152.003 13.373 152.791 13.373V17.3987H151.749C151.149 17.3987 150.595 17.4644 150.088 17.5957C149.601 17.7271 149.178 17.943 148.822 18.2432C148.465 18.5435 148.193 18.9564 148.005 19.4819C147.818 19.9886 147.724 20.6268 147.724 21.3962V27.6741H143.923ZM161.227 27.6741C160.251 27.6741 159.387 27.5239 158.637 27.2236C157.886 26.9046 157.304 26.3885 156.891 25.6753C156.497 24.9434 156.3 23.9487 156.3 22.6912V16.8357H153.907V13.7108H156.3L156.694 9.91032H160.072V13.7108H163.788V16.8357H160.101V22.7475C160.101 23.3856 160.232 23.8361 160.495 24.0988C160.776 24.3428 161.264 24.4648 161.959 24.4648H163.732V27.6741H161.227ZM172.951 28.0119C171.524 28.0119 170.258 27.7116 169.15 27.111C168.062 26.5105 167.208 25.6659 166.588 24.5774C165.969 23.4888 165.659 22.2408 165.659 20.8332C165.659 19.3693 165.96 18.0837 166.56 16.9764C167.18 15.8503 168.034 14.9683 169.122 14.3301C170.229 13.692 171.506 13.373 172.951 13.373C174.358 13.373 175.588 13.6733 176.639 14.2738C177.69 14.8744 178.515 15.7002 179.116 16.7512C179.717 17.7834 180.017 18.9564 180.017 20.2702C180.017 20.4578 180.007 20.6737 179.989 20.9177C179.989 21.1429 179.979 21.3775 179.961 21.6214H168.362V19.2849H176.16C176.104 18.4215 175.775 17.7271 175.175 17.2016C174.593 16.6761 173.861 16.4134 172.979 16.4134C172.322 16.4134 171.721 16.5635 171.177 16.8638C170.633 17.1453 170.201 17.5864 169.882 18.1869C169.563 18.7687 169.404 19.5007 169.404 20.3828V21.1992C169.404 21.9499 169.554 22.6068 169.854 23.1698C170.154 23.7328 170.567 24.1645 171.093 24.4648C171.637 24.7651 172.247 24.9152 172.923 24.9152C173.617 24.9152 174.199 24.7651 174.668 24.4648C175.137 24.1457 175.494 23.7422 175.738 23.2542H179.595C179.332 24.1363 178.891 24.9434 178.271 25.6753C177.652 26.3885 176.892 26.9609 175.991 27.3926C175.09 27.8054 174.077 28.0119 172.951 28.0119ZM180.513 27.6741L185.637 20.6924L180.513 13.7108H184.624L188.058 18.5248H188.086L191.549 13.7108H195.631L190.507 20.6924L195.631 27.6741H191.549L188.086 22.832H188.058L184.624 27.6741H180.513Z" fill="#170F49"/>
<path d="M0.055481 15.4841C0.055481 7.02997 6.90893 0.176514 15.3631 0.176514V21.3221C15.3631 29.7763 8.50964 36.6297 0.055481 36.6297V15.4841Z" fill="#4A3AFF"/>
<path d="M17.584 8.49455C17.584 3.90063 21.3081 0.176514 25.902 0.176514C30.496 0.176514 34.2201 3.90062 34.2201 8.49455V8.97479C34.2201 13.5687 30.496 17.2928 25.902 17.2928C21.3081 17.2928 17.584 13.5687 17.584 8.97479V8.49455Z" fill="#4CBFFF"/>
<path d="M17.584 27.8317C17.584 23.2378 21.3081 19.5137 25.902 19.5137C30.496 19.5137 34.2201 23.2378 34.2201 27.8317V28.3119C34.2201 32.9059 30.496 36.63 25.902 36.63C21.3081 36.63 17.584 32.9059 17.584 28.312V27.8317Z" fill="#962DFF"/>
</svg>
